<mxfile host="Electron" modified="2023-01-30T05:28:21.293Z" agent="5.0 (X11; Linux x86_64) AppleWebKit/537.36 (KHTML, like Gecko) draw.io/20.7.4 Chrome/106.0.5249.199 Electron/21.3.3 Safari/537.36" etag="Cwaodcn7Ru7LuiCibMvb" compressed="false" version="20.7.4" type="device">
  <diagram id="n1-XtxnXe3RT6Pm9B4LI" name="第 1 页">
    <mxGraphModel dx="174" dy="107" grid="1" gridSize="10" guides="1" tooltips="1" connect="1" arrows="1" fold="1" page="1" pageScale="1" pageWidth="827" pageHeight="1169" math="0" shadow="0">
      <root>
        <mxCell id="0" />
        <mxCell id="1" parent="0" />
        <mxCell id="zf8pzSHRXDpI5MpJthdh-1" value="" style="ellipse;whiteSpace=wrap;html=1;aspect=fixed;strokeColor=none;fillColor=#0077FF;" parent="1" vertex="1">
          <mxGeometry x="160" y="160" width="80" height="80" as="geometry" />
        </mxCell>
        <mxCell id="xPTHlozj1cLAyFEpdVMB-3" value="" style="group" vertex="1" connectable="0" parent="1">
          <mxGeometry x="189" y="180.5" width="22" height="39" as="geometry" />
        </mxCell>
        <mxCell id="xPTHlozj1cLAyFEpdVMB-1" value="" style="endArrow=none;html=1;curved=1;strokeWidth=5;strokeColor=#FFFFFF;" edge="1" parent="xPTHlozj1cLAyFEpdVMB-3">
          <mxGeometry width="50" height="50" relative="1" as="geometry">
            <mxPoint x="2" y="10" as="sourcePoint" />
            <mxPoint x="2" y="40" as="targetPoint" />
            <Array as="points">
              <mxPoint x="12" />
              <mxPoint x="22" y="10" />
            </Array>
          </mxGeometry>
        </mxCell>
        <mxCell id="xPTHlozj1cLAyFEpdVMB-2" value="" style="endArrow=none;html=1;curved=1;strokeWidth=5;strokeColor=#FFFFFF;" edge="1" parent="xPTHlozj1cLAyFEpdVMB-3">
          <mxGeometry width="50" height="50" relative="1" as="geometry">
            <mxPoint y="39" as="sourcePoint" />
            <mxPoint x="20" y="39" as="targetPoint" />
          </mxGeometry>
        </mxCell>
      </root>
    </mxGraphModel>
  </diagram>
</mxfile>
